<?xml version="1.0" encoding="UTF-8" standalone="no"?>
<!-- Created with Inkscape (http://www.inkscape.org/) -->

<svg
   xmlns:dc="http://purl.org/dc/elements/1.1/"
   xmlns:cc="http://creativecommons.org/ns#"
   xmlns:rdf="http://www.w3.org/1999/02/22-rdf-syntax-ns#"
   xmlns:svg="http://www.w3.org/2000/svg"
   xmlns="http://www.w3.org/2000/svg"
   xmlns:sodipodi="http://sodipodi.sourceforge.net/DTD/sodipodi-0.dtd"
   xmlns:inkscape="http://www.inkscape.org/namespaces/inkscape"
   width="1000"
   height="355.23267"
   viewBox="0 0 264.58333 93.988645"
   version="1.1"
   id="svg8"
   inkscape:version="0.92.4 (5da689c313, 2019-01-14)"
   sodipodi:docname="A.svg">
  <defs
     id="defs2" />
  <sodipodi:namedview
     id="base"
     pagecolor="#ffffff"
     bordercolor="#666666"
     borderopacity="1.0"
     inkscape:pageopacity="0.82352941"
     inkscape:pageshadow="2"
     inkscape:zoom="0.49497475"
     inkscape:cx="690.83444"
     inkscape:cy="-166.43425"
     inkscape:document-units="px"
     inkscape:current-layer="layer1"
     showgrid="false"
     units="px"
     inkscape:window-width="1920"
     inkscape:window-height="1017"
     inkscape:window-x="1912"
     inkscape:window-y="-8"
     inkscape:window-maximized="1"
     inkscape:pagecheckerboard="true"
     fit-margin-top="0"
     fit-margin-left="0"
     fit-margin-right="0"
     fit-margin-bottom="0" />
  <metadata
     id="metadata5">
    <rdf:RDF>
      <cc:Work
         rdf:about="">
        <dc:format>image/svg+xml</dc:format>
        <dc:type
           rdf:resource="http://purl.org/dc/dcmitype/StillImage" />
        <dc:title></dc:title>
      </cc:Work>
    </rdf:RDF>
  </metadata>
  <g
     inkscape:label="Layer 1"
     inkscape:groupmode="layer"
     id="layer1"
     transform="translate(148.34624,-23.567781)">
    <g
       transform="matrix(1.6945849,0,0,-1.6945849,52.997569,95.168093)"
       id="g4363">
      <path
         inkscape:connector-curvature="0"
         id="path4365"
         style="fill:#002c5b;fill-opacity:1;fill-rule:nonzero;stroke:none"
         d="m 0,0 c 0,0.459 -0.047,0.95 -0.139,1.471 -0.091,0.525 -0.263,1.006 -0.51,1.447 -0.246,0.44 -0.603,0.806 -1.071,1.101 -0.47,0.292 -1.071,0.44 -1.804,0.44 -0.753,0 -1.359,-0.148 -1.816,-0.44 C -5.799,3.724 -6.153,3.358 -6.399,2.918 -6.646,2.477 -6.818,1.996 -6.908,1.471 -7.001,0.95 -7.046,0.459 -7.046,0 c 0,-0.477 0.045,-0.976 0.138,-1.501 0.09,-0.524 0.262,-1.004 0.509,-1.444 0.246,-0.44 0.6,-0.803 1.059,-1.088 0.457,-0.284 1.063,-0.426 1.816,-0.426 0.733,0 1.334,0.142 1.804,0.426 0.468,0.285 0.825,0.648 1.071,1.088 0.247,0.44 0.419,0.92 0.51,1.444 C -0.047,-0.976 0,-0.477 0,0 m 4.129,-3.303 c 0,-0.165 0.069,-0.325 0.207,-0.481 0.136,-0.157 0.287,-0.234 0.452,-0.234 H 5.029 V -7.322 H 2.504 c -0.183,0 -0.39,0.045 -0.617,0.139 -0.232,0.09 -0.443,0.218 -0.635,0.384 -0.191,0.166 -0.354,0.364 -0.481,0.593 -0.129,0.228 -0.193,0.48 -0.193,0.756 v 0.385 c -0.442,-0.825 -1.073,-1.472 -1.901,-1.94 -0.825,-0.469 -1.723,-0.703 -2.697,-0.703 -0.991,0 -1.907,0.152 -2.752,0.454 -0.843,0.304 -1.582,0.772 -2.216,1.405 -0.633,0.633 -1.128,1.435 -1.486,2.41 -0.359,0.971 -0.537,2.119 -0.537,3.439 0,1.321 0.205,2.463 0.619,3.428 0.414,0.964 0.965,1.76 1.652,2.394 0.689,0.634 1.481,1.104 2.381,1.418 0.899,0.312 1.843,0.467 2.835,0.467 0.368,0 0.752,-0.045 1.155,-0.138 C -1.964,7.478 -1.58,7.349 -1.211,7.184 -0.843,7.019 -0.501,6.823 -0.18,6.593 0.141,6.363 0.403,6.12 0.604,5.864 v 1.468 h 3.525 z" />
    </g>
    <g
       transform="matrix(1.6945849,0,0,-1.6945849,71.416869,82.76)"
       id="g4367">
      <path
         inkscape:connector-curvature="0"
         id="path4369"
         style="fill:#002c5b;fill-opacity:1;fill-rule:nonzero;stroke:none"
         d="M 0,0 H 2.396 V -2.752 H 0 v -6.661 c 0,-0.149 0.01,-0.308 0.028,-0.482 0.017,-0.175 0.078,-0.34 0.18,-0.495 0.1,-0.157 0.262,-0.291 0.48,-0.4 0.221,-0.112 0.523,-0.165 0.909,-0.165 h 0.715 v -3.855 c -0.092,0 -0.192,-0.003 -0.303,-0.013 -0.11,-0.01 -0.228,-0.013 -0.357,-0.013 -0.257,0 -0.534,0.003 -0.826,0.013 -0.292,0.01 -0.624,0.013 -0.992,0.013 -1.083,0 -1.968,0.405 -2.655,1.211 -0.688,0.808 -1.033,1.982 -1.033,3.523 v 7.324 H -5.835 V 0 h 1.981 V 5.121 H 0 Z" />
    </g>
    <g
       transform="matrix(1.6945849,0,0,-1.6945849,92.809464,92.693785)"
       id="g4371">
      <path
         inkscape:connector-curvature="0"
         id="path4373"
         style="fill:#002c5b;fill-opacity:1;fill-rule:nonzero;stroke:none"
         d="M 0,0 C -0.054,0.586 -0.183,1.077 -0.386,1.471 -0.589,1.867 -0.828,2.183 -1.102,2.422 -1.377,2.659 -1.68,2.829 -2.01,2.931 -2.341,3.031 -2.663,3.082 -2.975,3.082 -3.892,3.082 -4.593,2.81 -5.078,2.27 -5.565,1.728 -5.862,0.971 -5.973,0 Z M 3.798,-4.488 C 3.542,-5.369 3.178,-6.107 2.711,-6.703 2.242,-7.3 1.716,-7.783 1.128,-8.151 0.54,-8.516 -0.077,-8.777 -0.73,-8.934 c -0.652,-0.154 -1.29,-0.233 -1.913,-0.233 -1.027,0 -1.987,0.132 -2.878,0.399 -0.889,0.266 -1.659,0.71 -2.312,1.335 -0.651,0.623 -1.164,1.448 -1.54,2.478 -0.378,1.027 -0.565,2.292 -0.565,3.797 0,0.294 0.023,0.68 0.069,1.158 0.045,0.476 0.153,0.991 0.315,1.542 0.167,0.549 0.405,1.104 0.718,1.665 0.309,0.558 0.729,1.062 1.252,1.512 0.523,0.45 1.165,0.817 1.928,1.102 0.76,0.285 1.673,0.426 2.736,0.426 0.717,0 1.477,-0.106 2.287,-0.317 C 0.174,5.72 0.917,5.316 1.596,4.719 2.273,4.123 2.841,3.302 3.29,2.257 3.739,1.21 3.962,-0.149 3.962,-1.818 V -2.506 H -6.084 c 0.018,-0.275 0.063,-0.614 0.138,-1.017 0.072,-0.405 0.223,-0.801 0.455,-1.185 0.227,-0.385 0.567,-0.711 1.018,-0.979 0.449,-0.265 1.059,-0.397 1.83,-0.397 0.53,0 1.04,0.132 1.528,0.397 0.486,0.268 0.802,0.666 0.949,1.199 z" />
    </g>
    <g
       transform="matrix(1.6945849,0,0,-1.6945849,101.82296,89.617449)"
       id="g4375">
      <path
         inkscape:connector-curvature="0"
         id="path4377"
         style="fill:#002c5b;fill-opacity:1;fill-rule:nonzero;stroke:none"
         d="M 0,0 C 0,0.182 -0.073,0.354 -0.221,0.509 -0.367,0.665 -0.533,0.744 -0.716,0.744 H -0.901 V 4.047 H 1.322 C 1.579,4.047 1.85,3.992 2.133,3.881 2.417,3.771 2.674,3.62 2.904,3.428 3.134,3.233 3.323,3.015 3.468,2.767 3.615,2.519 3.688,2.267 3.688,2.009 V 1.513 h 0.057 c 0.201,0.368 0.411,0.726 0.633,1.076 0.22,0.347 0.486,0.66 0.798,0.934 0.311,0.276 0.673,0.496 1.087,0.661 0.412,0.166 0.912,0.248 1.502,0.248 0.127,0 0.249,-0.003 0.37,-0.014 C 8.253,4.409 8.376,4.395 8.506,4.376 V 0.469 C 8.34,0.506 8.162,0.522 7.969,0.522 H 7.405 C 6.653,0.522 6.046,0.417 5.588,0.207 5.13,-0.004 4.771,-0.28 4.515,-0.619 4.257,-0.958 4.084,-1.334 3.992,-1.748 3.899,-2.16 3.854,-2.568 3.854,-2.973 v -7.625 H 0 Z" />
    </g>
    <g
       transform="matrix(1.6945849,0,0,-1.6945849,37.817973,73.577875)"
       id="g4379">
      <path
         inkscape:connector-curvature="0"
         id="path4381"
         style="fill:#002c5b;fill-opacity:1;fill-rule:nonzero;stroke:none"
         d="m 0,0 -5.654,-20.063 h -3.965 c -0.348,1.614 -2.946,14.773 -3.054,15.415 h -0.057 c 0,0 -2.707,-13.727 -3.054,-15.415 h -3.855 L -25.276,0 h 4.433 l 3.158,-14.75 h 0.055 c 0.092,0.514 2.22,11.863 2.755,14.452 h 4.377 c 0.383,-1.818 2.87,-14.03 2.943,-14.452 H -7.5 C -7.443,-14.438 -4.331,0 -4.331,0 Z" />
    </g>
    <g
       transform="matrix(1.6945849,0,0,-1.6945849,-136.69766,94.717808)"
       id="g4383">
      <path
         inkscape:connector-curvature="0"
         id="path4385"
         style="fill:#009ada;fill-opacity:1;fill-rule:nonzero;stroke:none"
         d="M 0,0 2.566,7.923 H 2.621 L 5.105,0 Z m 0,12.441 -6.874,-20.015 4.346,-0.009 1.412,4.124 h 7.393 l 1.275,-4.115 h 4.367 l -6.87,20.015 z" />
    </g>
    <g
       transform="matrix(1.6945849,0,0,-1.6945849,-35.143067,74.12351)"
       id="g4387">
      <path
         inkscape:connector-curvature="0"
         id="path4389"
         style="fill:#009ada;fill-opacity:1;fill-rule:nonzero;stroke:none"
         d="m 0,0 h -3.854 v -5.096 h -1.982 v -2.753 h 1.982 v -7.323 c 0,-1.541 0.344,-2.715 1.033,-3.523 0.687,-0.807 1.573,-1.211 2.657,-1.211 0.367,0 0.696,-0.004 0.99,-0.013 0.294,-0.01 0.568,-0.014 0.826,-0.014 0.127,0 0.247,0.004 0.358,0.014 0.109,0.009 0.211,0.013 0.303,0.013 v 3.854 H 1.596 c -0.385,0 -0.688,0.054 -0.907,0.166 -0.221,0.109 -0.381,0.242 -0.482,0.399 -0.101,0.155 -0.161,0.32 -0.178,0.495 C 0.009,-14.817 0,-14.658 0,-14.509 v 6.66 h 2.395 v 2.753 H 0 Z" />
    </g>
    <g
       transform="matrix(1.6945849,0,0,-1.6945849,-108.65618,81.781518)"
       id="g4391">
      <path
         inkscape:connector-curvature="0"
         id="path4393"
         style="fill:#009ada;fill-opacity:1;fill-rule:nonzero;stroke:none"
         d="m 0,0 c 0,0.294 0.009,0.546 0.026,0.758 0.019,0.209 0.07,0.381 0.152,0.51 0.083,0.128 0.215,0.219 0.398,0.274 0.183,0.055 0.442,0.083 0.773,0.083 h 1.073 v 3.11 C 2.257,4.753 2.027,4.768 1.733,4.777 1.441,4.786 1.009,4.79 0.439,4.79 -0.88,4.79 -1.928,4.474 -2.698,3.84 -3.469,3.207 -3.854,2.13 -3.854,0.607 v -1.184 h -2.12 V -3.33 h 2.12 v -6.404 h -0.013 v -0.931 l -0.124,-4.557 c 0.044,0 0.081,0.011 0.124,0.011 v -0.007 h 3.86 v 4.046 c 0,0.037 0.007,0.07 0.007,0.107 v 7.735 h 2.505 v 2.753 H 0 Z" />
    </g>
    <g
       transform="matrix(1.6945849,0,0,-1.6945849,-93.052766,81.781518)"
       id="g4395">
      <path
         inkscape:connector-curvature="0"
         id="path4397"
         style="fill:#009ada;fill-opacity:1;fill-rule:nonzero;stroke:none"
         d="M 0,0 C 0,0.294 0.009,0.546 0.028,0.758 0.046,0.967 0.097,1.139 0.18,1.268 0.262,1.396 0.395,1.487 0.579,1.542 0.762,1.597 1.02,1.625 1.35,1.625 h 1.073 v 3.11 C 2.257,4.753 2.027,4.768 1.735,4.777 1.441,4.786 1.008,4.79 0.441,4.79 -0.88,4.79 -1.926,4.474 -2.697,3.84 -3.469,3.207 -3.853,2.13 -3.853,0.607 V -0.577 H -5.972 V -3.33 h 2.119 v -6.404 h -0.013 v -0.956 l -0.125,-4.532 c 0.045,0 0.081,0.011 0.125,0.011 v -0.007 h 3.86 v 4.067 c 0,0.031 0.006,0.056 0.006,0.086 v 7.735 h 2.506 v 2.753 H 0 Z" />
    </g>
    <path
       inkscape:connector-curvature="0"
       id="path4399"
       style="fill:#009ada;fill-opacity:1;fill-rule:nonzero;stroke:none;stroke-width:1.69458485"
       d="m -87.227648,107.57057 h 6.537725 V 82.851652 h -6.537725 z" />
    <g
       transform="matrix(1.6945849,0,0,-1.6945849,-54.766184,90.408642)"
       id="g4401">
      <path
         inkscape:connector-curvature="0"
         id="path4403"
         style="fill:#009ada;fill-opacity:1;fill-rule:nonzero;stroke:none"
         d="m 0,0 c 0,0.807 -0.133,1.513 -0.399,2.118 -0.267,0.606 -0.625,1.115 -1.074,1.529 -0.45,0.413 -0.987,0.724 -1.61,0.934 -0.624,0.211 -1.295,0.318 -2.01,0.318 -0.697,0 -1.298,-0.1 -1.803,-0.302 C -7.4,4.393 -7.832,4.146 -8.19,3.854 -8.548,3.559 -8.836,3.251 -9.057,2.931 -9.277,2.61 -9.442,2.339 -9.552,2.118 v 0.495 c 0,0.222 -0.05,0.443 -0.152,0.662 -0.101,0.219 -0.233,0.422 -0.4,0.605 -0.164,0.183 -0.347,0.335 -0.55,0.454 -0.201,0.12 -0.412,0.18 -0.632,0.18 h -3.079 V 1.211 h 0.381 c 0.183,0 0.353,-0.092 0.509,-0.275 0.156,-0.185 0.234,-0.368 0.234,-0.551 v -6.442 l -0.009,-4.034 h 3.863 v 2.712 5.645 c 0,1.119 0.288,1.962 0.867,2.532 0.579,0.569 1.298,0.852 2.161,0.852 0.606,0 1.077,-0.1 1.418,-0.301 0.339,-0.204 0.592,-0.451 0.758,-0.744 0.163,-0.294 0.26,-0.605 0.288,-0.936 0.026,-0.33 0.041,-0.634 0.041,-0.909 v -6.109 -2.742 L 0.021,-10.089 0,-6.002 Z" />
    </g>
    <g
       transform="matrix(1.6945849,0,0,-1.6945849,-13.330012,82.661528)"
       id="g4405">
      <path
         inkscape:connector-curvature="0"
         id="path4407"
         style="fill:#009ada;fill-opacity:1;fill-rule:nonzero;stroke:none"
         d="m 0,0 -3.023,-10.848 h -0.054 l -3.078,10.783 h -3.86 l 4.9,-15.243 c -0.091,-0.495 -0.211,-0.889 -0.357,-1.182 -0.148,-0.294 -0.322,-0.511 -0.524,-0.649 -0.202,-0.137 -0.439,-0.224 -0.716,-0.261 -0.274,-0.037 -0.587,-0.054 -0.936,-0.054 l -1.294,0.109 v -3.247 h 2.286 c 0.843,0 1.527,0.063 2.051,0.191 0.521,0.13 0.976,0.408 1.361,0.84 0.386,0.432 0.743,1.051 1.074,1.858 0.331,0.808 0.725,1.891 1.185,3.248 L 3.771,0 Z" />
    </g>
    <g
       transform="matrix(1.6945849,0,0,-1.6945849,-84.030118,74.227747)"
       id="g4409">
      <path
         inkscape:connector-curvature="0"
         id="path4411"
         style="fill:#009ada;fill-opacity:1;fill-rule:nonzero;stroke:none"
         d="m 0,0 c -0.6,0 -1.114,-0.214 -1.542,-0.642 -0.429,-0.429 -0.643,-0.951 -0.643,-1.569 0,-0.602 0.214,-1.115 0.643,-1.543 0.428,-0.429 0.942,-0.643 1.542,-0.643 0.619,0 1.141,0.214 1.57,0.643 0.429,0.428 0.644,0.941 0.644,1.543 0,0.618 -0.215,1.14 -0.644,1.569 C 1.141,-0.214 0.619,0 0,0" />
    </g>
    <path
       inkscape:connector-curvature="0"
       id="path4413"
       style="fill:#009ada;fill-opacity:1;fill-rule:nonzero;stroke:none;stroke-width:1.69458485"
       d="m -53.151232,107.57057 h 6.539406 V 82.851652 h -6.539406 z" />
    <g
       transform="matrix(1.6945849,0,0,-1.6945849,-50.023209,74.227747)"
       id="g4415">
      <path
         inkscape:connector-curvature="0"
         id="path4417"
         style="fill:#009ada;fill-opacity:1;fill-rule:nonzero;stroke:none"
         d="m 0,0 c -0.6,0 -1.116,-0.214 -1.544,-0.642 -0.429,-0.429 -0.643,-0.951 -0.643,-1.569 0,-0.602 0.214,-1.115 0.643,-1.543 0.428,-0.429 0.944,-0.643 1.544,-0.643 0.616,0 1.139,0.214 1.568,0.643 0.427,0.428 0.644,0.941 0.644,1.543 0,0.618 -0.217,1.14 -0.644,1.569 C 1.139,-0.214 0.616,0 0,0" />
    </g>
    <g
       transform="matrix(1.6945849,0,0,-1.6945849,110.94491,52.633301)"
       id="g4419">
      <path
         inkscape:connector-curvature="0"
         id="path4421"
         style="fill:#009ada;fill-opacity:1;fill-rule:nonzero;stroke:none"
         d="m 0,0 c -0.044,1.707 -0.631,3.352 -1.328,4.891 -0.814,1.799 -1.801,3.514 -2.717,5.262 -0.582,1.111 -1.142,2.236 -1.636,3.389 -0.248,0.581 -0.48,1.17 -0.69,1.766 -0.109,0.312 -0.213,0.626 -0.31,0.942 -0.045,0.148 -0.089,0.297 -0.131,0.446 -0.037,0.129 -0.052,0.346 -0.125,0.456 0,0 0,0 0,0 -0.052,-0.079 -0.063,-0.235 -0.089,-0.327 -0.035,-0.129 -0.072,-0.257 -0.11,-0.385 -0.082,-0.275 -0.169,-0.549 -0.26,-0.821 -0.175,-0.517 -0.367,-1.03 -0.572,-1.536 -0.403,-0.994 -0.86,-1.965 -1.342,-2.922 -0.908,-1.801 -1.917,-3.548 -2.805,-5.358 -0.766,-1.559 -1.467,-3.202 -1.692,-4.937 -0.259,-2.003 0.129,-4.172 1.227,-5.878 1.071,-1.663 2.951,-2.859 4.94,-3.011 2.106,-0.205 4.245,0.56 5.672,2.138 C -0.513,-4.314 0.05,-2.098 0,0 0.003,-0.002 0.002,-0.066 0,0" />
    </g>
    <g
       transform="matrix(1.6945849,0,0,-1.6945849,98.307202,62.245152)"
       id="g4423">
      <path
         inkscape:connector-curvature="0"
         id="path4425"
         style="fill:#ffffff;fill-opacity:1;fill-rule:nonzero;stroke:none"
         d="m 0,0 c -0.986,0.207 -1.955,0.831 -2.592,1.669 -0.72,0.947 -1.121,2.19 -1.101,3.409 0.017,1.042 0.348,2.047 0.668,2.892 0.221,0.583 0.47,1.166 0.71,1.729 0.202,0.477 0.412,0.97 0.606,1.462 0.251,0.641 0.451,1.215 0.61,1.754 0.093,0.318 0.174,0.629 0.24,0.926 0.037,0.164 0.071,0.329 0.101,0.495 0.015,0.077 0.028,0.154 0.041,0.232 0.001,0.002 0.04,0.275 -0.02,0.364 C -0.765,14.974 -0.812,15 -0.862,15 -0.913,15 -0.96,14.974 -0.988,14.932 -1.026,14.875 -1.039,14.805 -1.05,14.743 -1.054,14.725 -1.057,14.708 -1.06,14.694 -1.082,14.618 -1.103,14.542 -1.126,14.466 -1.174,14.303 -1.226,14.141 -1.28,13.98 -1.378,13.689 -1.492,13.382 -1.619,13.069 -1.836,12.535 -2.097,11.966 -2.417,11.331 -2.665,10.84 -2.93,10.346 -3.186,9.869 -3.492,9.301 -3.807,8.714 -4.096,8.124 -4.525,7.251 -4.982,6.212 -5.123,5.122 -5.291,3.83 -5.015,2.511 -4.366,1.503 c 0.683,-1.06 1.86,-1.777 3.069,-1.87 0.135,-0.013 0.274,-0.02 0.411,-0.02 0.295,0 0.593,0.031 0.886,0.092 0.07,0.014 0.12,0.076 0.12,0.147 C 0.12,-0.076 0.07,-0.015 0,0" />
    </g>
    <g
       transform="matrix(1.6945849,0,0,-1.6945849,110.03339,63.671998)"
       id="g4427">
      <path
         inkscape:connector-curvature="0"
         id="path4429"
         style="fill:#75c044;fill-opacity:1;fill-rule:nonzero;stroke:none"
         d="m 0,0 c -0.357,-0.389 -0.752,-0.741 -1.184,-1.052 -0.7,-0.506 -1.441,-0.998 -2.238,-1.338 -0.448,-0.192 -0.926,-0.346 -1.401,-0.454 -1.7,-0.385 -3.434,-0.101 -5.045,0.506 -1.972,0.742 -3.704,1.906 -5.51,2.963 -1.606,0.941 -3.4,1.613 -5.272,1.705 -2.802,0.137 -5.431,-1.121 -7.339,-3.129 -0.646,-0.68 -1.221,-1.44 -1.664,-2.267 -0.437,-0.816 -0.583,-1.671 -0.583,-1.718 1.439,1.414 3.014,2.827 4.876,3.659 1.417,0.634 2.946,0.793 4.464,0.466 1.91,-0.411 3.55,-1.478 5.28,-2.322 1.753,-0.855 3.708,-1.317 5.656,-1.371 2.749,-0.076 5.863,0.57 8.13,2.199 0.58,0.417 1.143,0.934 1.591,1.492 C 0.134,-0.197 0.657,0.72 0.663,0.831 0.657,0.841 0.239,0.26 0,0" />
    </g>
  </g>
</svg>
