  <svg xmlns="http://www.w3.org/2000/svg" viewBox="0 0 132 65" class="c-header__logo-icon">
        <title id="header-logo">SES Water</title>
        <defs>
          <clipPath id="clip-path" transform="translate(-0.22 2.43)">
            <path d="M24.73,3.48a17.11,17.11,0,0,1-1.45,4.6c-1.34,3-3,5.64-2.62,7.13a6.54,6.54,0,0,0,5,5.19c4.3,1.22,5.09-1.15,5.09-1.15,1.5-3.11-2.4-8.12-2.4-8.12a24.41,24.41,0,0,1-3.55-7.67c0-.15,0-.21-.06-.21s0,.11,0,.23"
                  style="fill: none" />
          </clipPath>
          <linearGradient id="linear-gradient" x1="-627.59" y1="368.51" x2="-626.6" y2="368.51"
                          gradientTransform="matrix(11.47, -8.14, -8.14, -11.47, 10219.32, -861.24)" gradientUnits="userSpaceOnUse">
            <stop offset="0" stop-color="#fff" />
            <stop offset="0" stop-color="#f6f8fb" />
            <stop offset="0.02" stop-color="#c8d6e4" />
            <stop offset="0.04" stop-color="#9db5cf" />
            <stop offset="0.06" stop-color="#7799bd" />
            <stop offset="0.08" stop-color="#5780ad" />
            <stop offset="0.11" stop-color="#3c6ca0" />
            <stop offset="0.13" stop-color="#255b95" />
            <stop offset="0.17" stop-color="#154e8d" />
            <stop offset="0.21" stop-color="#094687" />
            <stop offset="0.26" stop-color="#024084" />
            <stop offset="0.42" stop-color="#003f83" />
            <stop offset="1" stop-color="#fff" />
          </linearGradient>
        </defs>
        <path d="M30.37,11.14c-1.92-2.47-3.89-5-4.8-7.77l-1-3-1,3c-.91,2.75-2.89,5.3-4.8,7.77C16.05,14.71,13.19,18.4,13.19,23a11.6,11.6,0,0,0,11.4,11.76A11.6,11.6,0,0,0,36,23c0-4.57-2.85-8.26-5.61-11.83"
              transform="translate(-0.22 2.43)" style="fill: #003f83" />
        <path d="M26.07,39.79c-3.77-3.26-5.43-2-9.46-4.69a14.56,14.56,0,0,1-6-11.85,15.73,15.73,0,0,1,2.11-7.58c-.58.93-1.25,2-1.83,2.82-2.36,3.58-4.43,7.1-6.75,10.68C-.72,36.66-1.34,46,3.89,53.51c4.16,6,12.41,10.87,19.8,8.12,3.7-1.38,6.58-4,7.13-8.08a15.5,15.5,0,0,0-4.75-13.76"
              transform="translate(-0.22 2.43)" style="fill: #009ca7" />
        <path d="M44.16,48.87c12.91-6.86,0-24.4-3.7-29-1-1.28-2.11-2.53-3.17-3.78a35.81,35.81,0,0,1-3.1-3.65c2.35,3.72,5.49,9.76,3.59,14.22s-6.89,11.53-4.05,17.54S42,50,44.16,48.87"
              transform="translate(-0.22 2.43)" style="fill: #009ca7" />
        <path d="M67,35.92A18.42,18.42,0,0,1,55.8,32l-.2-.16,3-4.5.24.18a14.26,14.26,0,0,0,8.33,3.14c2.34,0,3.74-.94,3.74-2.52V28c0-1.67-2.31-2.37-5-3.18l-.61-.19c-4-1.13-8.31-2.77-8.31-7.89v-.1c0-4.83,3.92-8.21,9.52-8.21a18.33,18.33,0,0,1,9.68,3l.22.15L73.77,16.3l-.26-.15a14.85,14.85,0,0,0-7.17-2.42c-2.06,0-3.35.89-3.35,2.33v.1c0,1.55,2.38,2.32,5.14,3.2l.51.17c4.28,1.33,8.25,3.21,8.25,7.84v.1c0,5.21-3.8,8.45-9.91,8.45"
              transform="translate(-0.22 2.43)" style="fill: #003f83" />
        <path d="M94.7,36.23C86.78,36.23,81,30.44,81,22.47v-.1c0-7.88,5.6-13.81,13-13.81,8.83,0,12.79,7.16,12.79,14.25,0,.51,0,1-.09,1.56l0,.4H87.63a7,7,0,0,0,7.17,6,9.2,9.2,0,0,0,6.87-3l.19-.18,3.91,3.46-.17.21a13.6,13.6,0,0,1-10.9,5m-7.13-16h12.75C99.9,17.18,98.05,14,94,14c-3.31,0-5.81,2.45-6.44,6.27"
              transform="translate(-0.22 2.43)" style="fill: #003f83" />
        <path d="M122.31,35.92a18.39,18.39,0,0,1-11.17-4l-.21-.16,3-4.5.24.18a14.21,14.21,0,0,0,8.32,3.14c2.35,0,3.75-.94,3.75-2.52V28c0-1.67-2.31-2.37-5-3.18l-.62-.19c-4-1.13-8.3-2.77-8.3-7.89v-.1c0-4.83,3.91-8.21,9.51-8.21a18.39,18.39,0,0,1,9.69,3l.22.15L129.1,16.3l-.25-.15a14.91,14.91,0,0,0-7.17-2.42c-2.07,0-3.36.89-3.36,2.33v.1c0,1.55,2.38,2.32,5.14,3.2l.51.17c4.29,1.33,8.25,3.21,8.25,7.84v.1c0,5.21-3.79,8.45-9.91,8.45"
              transform="translate(-0.22 2.43)" style="fill: #003f83" />
        <polygon points="57.28 43.9 60.07 43.9 63.59 54.83 67.2 43.85 69.39 43.85 73 54.83 76.52 43.9 79.23 43.9 74.1 58.74 71.87 58.74 68.25 48.15 64.64 58.74 62.41 58.74 57.28 43.9"
                 style="fill: #009ca7" />
        <path d="M83.7,41.37h2.4l6.47,14.84H89.84l-1.49-3.55h-7l-1.51,3.55H77.22Zm3.7,9-2.55-5.9-2.52,5.9Z"
              transform="translate(-0.22 2.43)" style="fill: #009ca7" />
        <polygon points="95.25 46.3 90.58 46.3 90.58 43.9 102.53 43.9 102.53 46.3 97.86 46.3 97.86 58.64 95.25 58.64 95.25 46.3"
                 style="fill: #009ca7" />
        <polygon points="104.58 43.9 115.49 43.9 115.49 46.21 107.16 46.21 107.16 50.05 114.54 50.05 114.54 52.36 107.16 52.36 107.16 56.32 115.59 56.32 115.59 58.64 104.58 58.64 104.58 43.9"
                 style="fill: #009ca7" />
        <path d="M118.55,41.47h6.56A5.93,5.93,0,0,1,129.36,43a4.44,4.44,0,0,1,1.22,3.18v0a4.42,4.42,0,0,1-3.51,4.46l4,5.58h-3l-3.61-5.13h-3.24v5.13h-2.59Zm6.37,7.31c1.85,0,3-1,3-2.46v0c0-1.58-1.13-2.44-3-2.44h-3.76v5Z"
              transform="translate(-0.22 2.43)" style="fill: #009ca7" />
        <g style="clip-path: url(#clip-path)">
          <polygon points="11.38 11.83 28.03 0 40.71 17.9 24.06 29.73 11.38 11.83"
                   style="fill: url(#linear-gradient)" />
        </g>
      </svg>